<?xml version="1.0" encoding="UTF-8"?>
<svg id="Lager_1" data-name="Lager 1" xmlns="http://www.w3.org/2000/svg" viewBox="0 0 324.87 152.84">
  <defs>
    <style>
      .cls-1 {
        fill: #fff;
      }
    </style>
  </defs>
  <path class="cls-1" d="M50.71,39.02c0,.26-1.66,2.28-4.98,6.06-3.32,3.78-4.98,7.76-4.98,11.93,0,2.93,1.5,8.69,4.49,17.26,2.99,8.57,4.49,16.28,4.49,23.13,0,8.41-1.17,15.84-3.5,22.29-2.45,6.84-7.07,13.59-13.87,20.24-5.71,5.54-11.46,9.75-17.25,12.61-.51.2-.89.29-1.17.29-.47,0-.91-.72-1.34-2.15-.31-.98-2.55-7.89-6.7-20.73-3.93-12.13-5.89-18.25-5.89-18.38,0-.46,1.28-1.96,3.85-4.5,3.15-3.06,5.54-5.9,7.17-8.51,2.56-4.17,3.85-8.54,3.85-13.1,0-4.04-.85-8.15-2.56-12.32-3.15-7.56-4.74-11.41-4.78-11.54-1.71-5.34-2.56-11.5-2.56-18.48,0-12.12,3.42-22.16,10.26-30.12C20.77,6.55,27.53,2.38,35.49.49c1.44-.33,2.04-.49,1.81-.49.19,0,.47.72.82,2.15,1.71,7.04,5.85,19.04,12.41,35.98.12.33.17.62.17.88Z"/>
  <path class="cls-1" d="M134.11,6.65c0,7.56-.19,18.89-.55,33.98-.37,15.09-.55,26.42-.55,33.98,0,2.15.02,5.35.06,9.58.04,4.24.06,7.43.06,9.58,0,18.12-1.55,30.22-4.66,36.28-4.7,9.39-16.11,14.08-34.21,14.08-10.22,0-17.78-1.73-22.67-5.18-4.58-3.26-7.65-8.67-9.21-16.23-1.17-5.8-1.75-15.35-1.75-28.65,0-1.89.02-4.99.06-9.29v-10.17c0-7.56-.18-18.92-.55-34.08-.37-15.16-.55-26.51-.55-34.08,0-1.43.47-2.15,1.4-2.15,2.88,0,7.22.07,13.03.2,5.81.13,10.15.2,13.03.2,2.49,0,3.44-.03,2.86-.1,1.32.2,1.98.91,1.98,2.15,0,7.5-.2,18.77-.61,33.83s-.61,26.34-.61,33.83c0,.85-.02,2.31-.06,4.4-.04,2.09-.06,3.68-.06,4.79,0,12.58,2.31,18.87,6.94,18.87,3.77,0,5.65-4.86,5.65-14.57,0-8.86-.17-22.2-.5-39.99-.33-17.8-.5-31.13-.5-39.99,0-1.96.33-2.97.99-3.03,1.4-.26,3.83-.29,7.29-.1,4.66.2,7.19.29,7.58.29,1.63,0,4.08-.13,7.34-.39,3.26-.26,5.71-.39,7.34-.39.97,0,1.46.78,1.46,2.35Z"/>
  <path class="cls-1" d="M219.15,140.42c0,.72-.52,1.08-1.57,1.08-1.71,0-4.25-.13-7.61-.39-3.36-.26-5.88-.39-7.55-.39s-4.05.13-7.26.39c-3.21.26-5.61.39-7.2.39-1.32,0-2.2-.81-2.62-2.44-.7-2.93-1.71-7.37-3.03-13.3-1.28-5.34-3.11-13.46-5.48-24.35-.54-2.8-1.05-4.2-1.52-4.2-.35,0-.52,1.08-.52,3.23,0,4.43.26,11.08.79,19.95.52,8.87.79,15.39.79,19.56,0,1.5-.39,2.25-1.17,2.25-.27,0-.76-.1-1.46-.29-3.34-.78-8.39-1.17-15.15-1.17-1.48,0-3.7.13-6.67.39-2.97.26-5.2.39-6.67.39-1.28,0-1.92-.94-1.92-2.84,0-7.3.23-18.27.7-32.9.47-14.63.7-25.6.7-32.9,0-18.64-.54-40.29-1.63-64.93l-.06-1.37c-.08-1.3.29-2.05,1.11-2.25-.08,0,.66,0,2.21,0,4.23,0,10.63-.1,19.18-.29,8.55-.2,14.96-.29,19.23-.29,9.09,0,16.59,3.23,22.5,9.68,6.88,7.63,10.32,18.68,10.32,33.15,0,9.39-.83,16.95-2.48,22.69-1.65,5.74-4.65,11.21-9,16.43-.93,1.11-1.4,2.19-1.4,3.23,0,.78,2.41,9.39,7.23,25.81,4.82,16.43,7.23,25,7.23,25.72ZM186.16,53.58c0-7.37-3.23-11.05-9.68-11.05-1.59,0-2.39,4.07-2.39,12.22,0,.98.04,2.44.12,4.4.08,1.96.12,3.42.12,4.4s.8,1.47,2.39,1.47c6.29,0,9.44-3.81,9.44-11.44Z"/>
  <path class="cls-1" d="M288.97,102.28c0,2.35-.25,5.51-.76,9.48-.7,5.61-1.09,8.77-1.17,9.49-.31,4.5-.95,11.12-1.92,19.85-.19,1.5-.91,2.25-2.16,2.25-.39,0-.93-.1-1.63-.29-6.84-1.56-15.91-2.35-27.22-2.35-3.11,0-7.75.13-13.93.39-6.18.26-10.8.39-13.87.39-1.28,0-1.92-.94-1.92-2.84,0-7.3.23-18.27.7-32.9.47-14.63.7-25.6.7-32.9s-.21-21.28-.64-41.56c-.12-5.21-.33-13-.64-23.37l-.06-1.37c-.08-1.5.41-2.25,1.46-2.25,3.03,0,7.59.13,13.67.39,6.08.26,10.66.39,13.73.39s7.71-.13,13.93-.39c6.22-.26,10.88-.39,13.99-.39,2.18,0,3.48,1.66,3.9,4.99.19,1.3.58,7.03,1.17,17.16.58,10.14.88,15.92.88,17.36,0,1.3-.41,1.96-1.22,1.96-2.1,0-5.27-.36-9.5-1.08-4.24-.72-7.42-1.08-9.56-1.08-3.46,0-5.44.03-5.95.1-3.03.46-4.55,1.83-4.55,4.11,0,3.13,1.81,5.08,5.42,5.87,1.01.2,3.5.29,7.46.29,3.26,0,6.39-.26,9.38-.78,3.96-.65,5.57-.98,4.84-.98,1.01,0,1.51.95,1.51,2.83s-.17,4.63-.52,8.41c-.47,4.63-.72,7.53-.76,8.7-.51,8.74-.76,14.96-.76,18.68,0,1.43-.6,2.15-1.81,2.15.35,0-1.34-.39-5.07-1.17-4.16-.85-8.96-1.27-14.4-1.27-3.54,0-5.3,1.63-5.3,4.89,0,1.56.23,2.71.7,3.42,1.13,1.56,6.97,2.35,17.54,2.35,1.44,0,3.58-.21,6.44-.64,2.86-.42,5-.64,6.44-.64.97,0,1.46.78,1.46,2.35Z"/>
  <path class="cls-1" d="M324.87,26.99c0,9.91-.33,17.5-.99,22.78-.66,5.28-1.85,11.9-3.56,19.85l-4.2,19.56c-.39,2.15-1.26,3.23-2.62,3.23l-3.56.1-4.43-.1c-1.2,0-2.04-.91-2.51-2.74-4.86-19.82-7.29-31.19-7.29-34.13l.12-47.82c0-2.28.49-3.42,1.46-3.42,1.44,0,3.6.13,6.5.39,2.89.26,5.06.39,6.5.39s3.6-.13,6.5-.39c2.89-.26,5.06-.39,6.5-.39.97,0,1.46,1.11,1.46,3.33s.02,5.46.06,9.73c.04,4.27.06,7.48.06,9.63ZM324.64,119.88c0,7.11-1.33,12.89-3.99,17.36-2.66,4.46-6.11,6.7-10.34,6.7s-7.68-2.23-10.34-6.7c-2.66-4.46-3.99-10.25-3.99-17.36s1.32-12.97,3.96-17.41c2.64-4.43,6.1-6.65,10.37-6.65s7.68,2.23,10.34,6.7c2.66,4.47,3.99,10.25,3.99,17.36Z"/>
</svg>